<svg width="24" height="24" viewBox="0 0 24 24" fill="none" xmlns="http://www.w3.org/2000/svg">
<g clip-path="url(#clip0_210_248)">
<path d="M2.76923 3.69226C1.24062 3.69226 0 4.93288 0 6.46149V17.5384C0 19.067 1.24062 20.3076 2.76923 20.3076H21.2308C22.7594 20.3076 24 19.067 24 17.5384V6.46149C24 4.93288 22.7594 3.69226 21.2308 3.69226H2.76923ZM2.76923 5.53841H21.2308C21.7394 5.53841 22.1538 5.95288 22.1538 6.46149V6.92303L12 12.4043L1.84615 6.92303V6.46149C1.84615 5.95288 2.26062 5.53841 2.76923 5.53841ZM1.84615 7.18241L7.87477 11.8846L1.96154 17.9427L9.17354 12.8076L12 14.6252L14.8274 12.8076L22.0385 17.9427L16.1252 11.8846L22.1538 7.18241V17.5384C22.1487 17.6805 22.1091 17.8193 22.0385 17.9427C21.8862 18.2427 21.5898 18.4615 21.2308 18.4615H2.76923C2.41015 18.4615 2.11385 18.2436 1.96154 17.9427C1.891 17.8196 1.85141 17.6802 1.84615 17.5384V7.18241Z" fill="black"/>
</g>
<defs>
<clipPath id="clip0_210_248">
<rect width="24" height="24" fill="white"/>
</clipPath>
</defs>
</svg>
